<svg xmlns="http://www.w3.org/2000/svg" version="1.1" xmlns:xlink="http://www.w3.org/1999/xlink" xmlns:svgjs="http://svgjs.dev/svgjs" width="128" height="128" viewBox="0 0 128 128"><g transform="matrix(0.8046875,0,0,0.8046875,12.333870967741937,12.333870967741937)"><svg viewBox="0 0 155 155" data-background-color="#000000" preserveAspectRatio="xMidYMid meet" height="128" width="128" xmlns="http://www.w3.org/2000/svg" xmlns:xlink="http://www.w3.org/1999/xlink"><g id="tight-bounds" transform="matrix(1,0,0,1,0.25,0.25)"><svg viewBox="0 0 154.5 154.5" height="154.5" width="154.5"><g><svg></svg></g><g><svg viewBox="0 0 154.5 154.5" height="154.5" width="154.5"><g transform="matrix(1,0,0,1,59.22495132098046,59.016757278)"><svg viewBox="0 0 36.05009735803908 36.46648544399999" height="36.46648544399999" width="36.05009735803908"><g><svg viewBox="0 0 36.05009735803908 36.46648544399999" height="36.46648544399999" width="36.05009735803908"><g><svg viewBox="0 0 36.05009735803908 36.46648544399999" height="36.46648544399999" width="36.05009735803908"><g id="textblocktransform"><svg viewBox="0 0 36.05009735803908 36.46648544399999" height="36.46648544399999" width="36.05009735803908" id="textblock"><g><svg viewBox="0 0 36.05009735803908 36.46648544399999" height="36.46648544399999" width="36.05009735803908"><g><svg viewBox="0 0 36.05009735803908 36.46648544399999" height="36.46648544399999" width="36.05009735803908"><g><svg xmlns="http://www.w3.org/2000/svg" xmlns:xlink="http://www.w3.org/1999/xlink" version="1.1" x="0" y="0" viewBox="3.4358209412481653 4.255 88.29417905875184 89.31400000000001" enable-background="new 0 0 100 100" xml:space="preserve" height="36.46648544399999" width="36.05009735803908" class="icon-icon-0" data-fill-palette-color="accent" id="icon-0"></svg></g></svg></g></svg></g></svg></g></svg></g></svg></g></svg></g><g></g></svg></g><defs></defs><mask id="46b94b0c-4c0f-470c-9429-0df3f0d3cf4f"><g id="SvgjsG4966"><svg viewBox="0 0 154.5 154.5" height="154.5" width="154.5"><g><svg></svg></g><g><svg viewBox="0 0 154.5 154.5" height="154.5" width="154.5"><g transform="matrix(1,0,0,1,59.22495132098046,59.016757278)"><svg viewBox="0 0 36.05009735803908 36.46648544399999" height="36.46648544399999" width="36.05009735803908"><g><svg viewBox="0 0 36.05009735803908 36.46648544399999" height="36.46648544399999" width="36.05009735803908"><g><svg viewBox="0 0 36.05009735803908 36.46648544399999" height="36.46648544399999" width="36.05009735803908"><g id="SvgjsG4965"><svg viewBox="0 0 36.05009735803908 36.46648544399999" height="36.46648544399999" width="36.05009735803908" id="SvgjsSvg4964"><g><svg viewBox="0 0 36.05009735803908 36.46648544399999" height="36.46648544399999" width="36.05009735803908"><g><svg viewBox="0 0 36.05009735803908 36.46648544399999" height="36.46648544399999" width="36.05009735803908"><g><svg xmlns="http://www.w3.org/2000/svg" xmlns:xlink="http://www.w3.org/1999/xlink" version="1.1" x="0" y="0" viewBox="3.4358209412481653 4.255 88.29417905875184 89.31400000000001" enable-background="new 0 0 100 100" xml:space="preserve" height="36.46648544399999" width="36.05009735803908" class="icon-icon-0" data-fill-palette-color="accent" id="SvgjsSvg4963"><path d="M84.554 4.255c-3.956 0-7.176 3.219-7.176 7.174 0 0.387 0.039 0.765 0.099 1.135-4.092 2.764-9.443 7-15.568 12.325-4.184-1.993-8.861-3.113-13.796-3.113-4.216 0-8.241 0.823-11.934 2.303-8.546-4.33-15.099-4.867-18.489-1.478-3.615 3.615-2.559 10.319 1.195 17.912-1.891 4.094-2.954 8.646-2.954 13.445 0 4.956 1.127 9.652 3.138 13.851C0.588 89.162 3.108 91.712 4.198 92.802c0.469 0.469 1.055 0.767 1.897 0.767 1.784 0 4.716-1.335 10.114-5.214 3.358-2.414 7.331-5.58 11.733-9.347 5.522 4.455 12.538 7.131 20.169 7.131 5.171 0 10.056-1.233 14.39-3.409 3.422 1.423 6.504 2.168 9.096 2.168 2.577 0 4.677-0.725 6.17-2.218 3.033-3.033 2.954-8.486-0.202-15.778 1.748-3.965 2.728-8.34 2.728-12.943 0-7.611-2.661-14.608-7.095-20.124 5.15-5.988 9.264-11.255 11.862-15.254 3.721-0.262 6.67-3.365 6.67-7.15C91.73 7.474 88.511 4.255 84.554 4.255zM68.88 33.851c-5.615 6.406-12.317 13.548-19.557 20.787-1.203 1.202-2.43 2.414-3.659 3.618-1.404-0.985-3.109-1.569-4.951-1.569-1.909 0-3.67 0.63-5.102 1.681-5.973-6.453-10.321-12.584-13.106-17.84 4.847-9.204 14.504-15.497 25.608-15.497C56.256 25.03 63.617 28.417 68.88 33.851zM35.322 65.33c0-2.973 2.418-5.39 5.391-5.39 2.972 0 5.39 2.417 5.39 5.39 0 2.972-2.418 5.389-5.39 5.389C37.741 70.719 35.322 68.302 35.322 65.33zM19.991 24.902c1.997-1.996 6.534-1.603 12.413 0.984-4.737 2.662-8.735 6.486-11.606 11.085C18.316 31.162 18.081 26.812 19.991 24.902zM33.389 60.761c-0.832 1.326-1.32 2.889-1.32 4.569 0 1.666 0.483 3.22 1.304 4.542-1.906 1.731-3.707 3.335-5.405 4.817-5.411-5.26-8.783-12.608-8.783-20.731 0-3.423 0.602-6.707 1.697-9.756C24.099 49.713 28.496 55.486 33.389 60.761zM6.826 90.183c0.652-2.084 4.084-7.877 13.913-19.329 1.348 2.176 2.946 4.18 4.756 5.971C15.18 85.626 9.106 89.5 6.826 90.183zM48.112 82.885c-6.647 0-12.774-2.26-17.665-6.044 1.661-1.451 3.373-2.979 5.129-4.575 1.438 1.066 3.211 1.707 5.136 1.707 1.897 0 3.649-0.623 5.076-1.663 4.52 3.62 8.853 6.503 12.835 8.59C55.362 82.176 51.82 82.885 48.112 82.885zM75.468 80.378c-1.517 1.516-4.78 1.675-9.296 0.201 3.787-2.577 6.999-5.942 9.397-9.857C77.141 75.275 77.128 78.719 75.468 80.378zM77.038 53.958c0 10.755-5.903 20.15-14.637 25.135-4.148-1.89-9.028-4.896-14.386-9.16 0.844-1.336 1.341-2.911 1.341-4.603 0-1.752-0.526-3.379-1.424-4.741 1.24-1.215 2.479-2.438 3.691-3.65 7.151-7.151 13.796-14.222 19.403-20.606C74.791 41.216 77.038 47.327 77.038 53.958zM64.959 26.553c5.377-4.637 10.091-8.369 13.792-10.919 0.724 0.995 1.693 1.796 2.82 2.314-2.49 3.659-6.115 8.261-10.553 13.435C69.204 29.542 67.171 27.917 64.959 26.553zM84.554 15.352c-2.162 0-3.922-1.76-3.922-3.922 0-2.162 1.76-3.92 3.922-3.92 2.163 0 3.923 1.758 3.923 3.92C88.477 13.592 86.717 15.352 84.554 15.352z" fill="white"></path><circle cx="84.426" cy="36.093" r="2.9" fill="white"></circle><circle cx="63.021" cy="64.038" r="5.9" fill="white"></circle><circle cx="42.211" cy="77.572" r="1.2" fill="white"></circle><circle cx="70.555" cy="46.986" r="1.2" fill="white"></circle><circle cx="40.963" cy="32.373" r="1.9" fill="white"></circle><circle cx="24.738" cy="62.178" r="1.9" fill="white"></circle><circle cx="42.425" cy="46.986" r="3.3" fill="white"></circle></svg></g></svg></g></svg></g></svg></g></svg></g></svg></g></svg></g><g></g></svg></g><defs><mask></mask></defs></svg><rect width="154.5" height="154.5" fill="black" stroke="none" visibility="hidden"></rect></g></mask><linearGradient x1="0" x2="1" y1="0.5" y2="0.5" id="2c923f40-54d2-4ec3-876b-0c86b1094b00"><stop stop-color="#fff72e" offset="0"></stop><stop stop-color="#deae29" offset="1"></stop></linearGradient><rect width="154.5" height="154.5" fill="url(#2c923f40-54d2-4ec3-876b-0c86b1094b00)" mask="url(#46b94b0c-4c0f-470c-9429-0df3f0d3cf4f)" data-fill-palette-color="accent"></rect></svg><rect width="154.5" height="154.5" fill="none" stroke="none" visibility="hidden"></rect></g></svg></g></svg>